<svg width="1440" height="490" fill="none" xmlns="http://www.w3.org/2000/svg"><ellipse cx="720.5" cy="386.5" rx="1011.5" ry="386.5" fill="url(#paint0_radial_42_4)"/><path d="M1558.3 400.449c0 44.025-23.36 86.024-65.72 124.281-42.37 38.257-103.69 72.732-179.52 101.695-151.65 57.925-361.179 93.763-592.646 93.763-231.468 0-441.001-35.838-592.648-93.763C51.941 597.462-9.387 562.987-51.749 524.73c-42.363-38.257-65.72-80.256-65.72-124.281 0-44.025 23.357-86.023 65.72-124.28 42.362-38.257 103.69-72.732 179.515-101.695 151.647-57.925 361.18-93.763 592.648-93.763 231.467 0 440.996 35.838 592.646 93.763 75.83 28.963 137.15 63.438 179.52 101.695 42.36 38.257 65.72 80.255 65.72 124.28z" fill="#0C0B0A" stroke="url(#paint1_linear_42_4)"/><defs><radialGradient id="paint0_radial_42_4" cx="0" cy="0" r="1" gradientUnits="userSpaceOnUse" gradientTransform="matrix(0 386.5 -1011.5 0 720.5 386.5)"><stop stop-color="#F1CB70"/><stop offset="1" stop-color="#F1CB70" stop-opacity="0"/></radialGradient><linearGradient id="paint1_linear_42_4" x1="-29.329" y1="259.375" x2="818.244" y2="1587.95" gradientUnits="userSpaceOnUse"><stop stop-color="#F6DEAF"/><stop offset="1" stop-color="#E9C786" stop-opacity="0"/></linearGradient></defs></svg>