<svg width="32" height="32" fill="none" xmlns="http://www.w3.org/2000/svg"><path d="M4 11.333c0-1.51.511-2.777 1.533-3.8C6.556 6.511 7.823 6 9.333 6c1.6 0 2.89.622 3.867 1.867.978 1.2 1.467 3.022 1.467 5.466 0 3.778-.89 6.667-2.667 8.667-1.778 2-4.222 3-7.333 3v-4c1.466 0 2.6-.378 3.4-1.133.844-.8 1.266-1.867 1.266-3.2V16l-.266.2A4.383 4.383 0 018 16.333c-1.067 0-2-.466-2.8-1.4C4.4 14 4 12.8 4 11.333zm13 0c0-1.51.511-2.777 1.533-3.8C19.556 6.511 20.823 6 22.333 6c1.6 0 2.89.622 3.867 1.867.978 1.2 1.467 3.022 1.467 5.466 0 3.778-.89 6.667-2.667 8.667-1.778 2-4.222 3-7.333 3v-4c1.466 0 2.6-.378 3.4-1.133.844-.8 1.266-1.867 1.266-3.2V16l-.266.2a4.383 4.383 0 01-1.067.133c-1.067 0-2-.466-2.8-1.4-.8-.933-1.2-2.133-1.2-3.6z" fill="url(#paint0_linear_42_21)"/><defs><linearGradient id="paint0_linear_42_21" x1="15.833" y1="-39.085" x2="17.112" y2="24.974" gradientUnits="userSpaceOnUse"><stop stop-color="#E4BC6D" stop-opacity="0"/><stop offset="1" stop-color="#E4BC6D"/></linearGradient></defs></svg>