<svg width="184" height="22" fill="none" xmlns="http://www.w3.org/2000/svg"><g opacity=".9"><g clip-path="url(#clip0_42_509)"><path d="M157.525 6.865l.001.006.004.02.002.005a.159.159 0 00.007.022v.001a.949.949 0 00.012.023v.002l5.394 9.43.003.005.007.01a.504.504 0 00.012.017l.007.008a.357.357 0 00.015.014l.006.005a.257.257 0 00.009.007l.008.005.008.005a.208.208 0 00.017.009l.011.005.007.002.011.004.008.002.012.002.009.002h.01l.011.001h.007l1.538-.011h.003a.212.212 0 00.073-.016l.005-.002a.1.1 0 00.022-.012.207.207 0 00.039-.03l.004-.004a.389.389 0 00.03-.04v-.001l5.297-9.512a.21.21 0 00-.001-.207l-.78-1.352-.001-.001a.171.171 0 00-.049-.057l-.004-.004c-.007-.005-.013-.01-.021-.013a.15.15 0 00-.022-.011l-.002-.001a.198.198 0 00-.078-.016h-.001l-10.69.081a.204.204 0 00-.176.106l-.759 1.363-.001.001a.19.19 0 00-.011.023v.001a.171.171 0 00-.007.023l-.002.006a4.147 4.147 0 00-.003.018l-.001.007a.183.183 0 00-.002.023v.001l.002.025zm11.656-1.055l.541.938-5.065 9.095-4.302-7.459 1.067-.008 3.042 5.273.001.002a.06.06 0 00.007.01l.004.007.008.01.005.006a.051.051 0 01.007.007l.008.008.006.005.01.008.006.004a.073.073 0 00.011.007l.002.001.005.003a.093.093 0 00.011.005l.009.004.009.004.011.003.007.002a.512.512 0 00.02.004l.011.001.009.001h.03l.01-.002a.075.075 0 00.008-.002.082.082 0 00.011-.002l.009-.003.01-.003.01-.004a.062.062 0 01.008-.004.08.08 0 00.011-.006l.005-.002.001-.001a.271.271 0 00.012-.008l.005-.004.011-.008.005-.005.008-.008.006-.007.006-.007a.05.05 0 00.007-.01l.005-.006.006-.01.002-.003 4.364-7.836zm-7.288 2.563l3.876-.03-1.912 3.434-1.964-3.404zm-3.287-2.69l10.22-.078-4.19 7.523-.541-.938 2.962-5.318a.21.21 0 00.027-.104.206.206 0 00-.206-.206l-1.349.01a.206.206 0 00-.202.21.206.206 0 00.205.206l.996-.008-.527.946-4.464.034h-.001l-1.42.01-.541-.937 5.142-.04a.205.205 0 00.202-.208.206.206 0 00-.205-.206l-5.495.041h-.001l-1.139.009.527-.946zm.498 1.353l5.201 9.017-1.067.008-5.158-9.017 1.024-.008z" fill="url(#paint0_linear_42_509)"/><path d="M97.414 5.36h2.25v11.06h-2.25V5.36zm5.113 0h2.235l4.006 4.033 4.006-4.033h2.235v11.06h-2.235V8.466l-4.006 3.871-4.006-3.87v7.954h-2.235V5.36zm15.62 0h5.811c.846 0 1.58.092 2.2.276.621.184 1.136.45 1.545.8.409.344.712.766.91 1.266.202.5.303 1.064.303 1.691 0 .59-.099 1.135-.296 1.635a3.43 3.43 0 01-.91 1.302c-.405.363-.917.649-1.537.857-.621.202-1.354.304-2.201.304l-3.589-.007v2.937h-2.236V5.36zm5.868 6.185a3.7 3.7 0 001.107-.149c.319-.104.585-.248.797-.432a1.72 1.72 0 00.479-.679c.108-.269.162-.566.162-.892 0-.655-.213-1.165-.641-1.528-.423-.368-1.058-.552-1.904-.552h-3.632v4.232h3.632zm7.348-6.185h5.606c.847 0 1.58.09 2.201.268.62.175 1.135.43 1.544.765.409.335.712.743.91 1.224.202.481.303 1.026.303 1.635 0 .41-.049.802-.148 1.175a3.501 3.501 0 01-1.227 1.854 4.26 4.26 0 01-1.093.601l2.397 3.539h-2.736l-2.073-3.143h-.064l-3.385-.007v3.15h-2.235V5.36zm5.663 5.972a3.7 3.7 0 001.107-.148c.32-.1.585-.239.797-.418a1.63 1.63 0 00.479-.65c.108-.26.163-.548.163-.864 0-.618-.212-1.095-.635-1.43-.423-.34-1.06-.51-1.911-.51h-3.428v4.02h3.428zm6.904-.474c0-.835.152-1.6.458-2.293a5.186 5.186 0 011.283-1.783 5.86 5.86 0 011.989-1.16c.776-.274 1.634-.411 2.574-.411.936 0 1.792.137 2.567.41.776.274 1.439.66 1.989 1.161.555.495.985 1.09 1.29 1.783.306.694.459 1.458.459 2.293 0 .84-.153 1.611-.459 2.314a5.252 5.252 0 01-1.29 1.805 5.884 5.884 0 01-1.989 1.182c-.775.278-1.631.417-2.567.417-.94 0-1.798-.139-2.574-.417a5.982 5.982 0 01-1.989-1.182 5.314 5.314 0 01-1.283-1.805c-.306-.703-.458-1.474-.458-2.314zm2.235 0c0 .571.101 1.085.304 1.543.206.457.491.85.853 1.175.367.32.797.568 1.29.743a4.876 4.876 0 001.622.261 4.81 4.81 0 001.615-.261 3.826 3.826 0 001.291-.743 3.5 3.5 0 00.853-1.175c.207-.458.31-.972.31-1.543 0-.57-.103-1.083-.31-1.535a3.298 3.298 0 00-.853-1.147 3.707 3.707 0 00-1.291-.722 5.06 5.06 0 00-1.615-.247 5.13 5.13 0 00-1.622.247 3.804 3.804 0 00-1.29.722 3.286 3.286 0 00-.853 1.147c-.203.452-.304.964-.304 1.535z" fill="url(#paint1_linear_42_509)"/><path d="M171.926 13.13c.4.227.804.432 1.213.616.414.18.842.333 1.284.46a10.5 10.5 0 001.389.283c.489.066 1.008.1 1.558.1a9.59 9.59 0 001.693-.128c.465-.09.844-.21 1.135-.36.297-.157.511-.34.642-.553a1.26 1.26 0 00.205-.693c0-.401-.167-.718-.501-.949-.334-.236-.849-.354-1.544-.354a7.8 7.8 0 00-.967.064c-.338.038-.681.08-1.029.127-.344.048-.684.092-1.023.135a8.447 8.447 0 01-.945.057 5.24 5.24 0 01-1.424-.192 3.79 3.79 0 01-1.206-.573 2.851 2.851 0 01-.832-.955c-.207-.382-.311-.828-.311-1.338 0-.302.04-.601.12-.898.085-.298.216-.58.395-.85.183-.273.418-.526.705-.757a4.162 4.162 0 011.037-.608 6.77 6.77 0 011.41-.397 10.127 10.127 0 011.827-.148c.493 0 .99.028 1.488.085a14.167 14.167 0 012.821.587c.437.137.844.29 1.22.46l-.98 1.812a9.987 9.987 0 00-1.002-.375c-.357-.118-.731-.22-1.121-.305-.39-.085-.795-.15-1.213-.198a10.196 10.196 0 00-1.27-.078c-.616 0-1.123.045-1.523.135-.395.09-.71.205-.945.347-.235.136-.399.292-.493.467-.09.17-.134.34-.134.51 0 .33.148.6.444.813.296.208.747.311 1.354.311.244 0 .524-.016.839-.05.32-.037.654-.077 1.002-.12.352-.042.709-.08 1.071-.113.367-.037.722-.056 1.065-.056.649 0 1.223.073 1.721.219.503.146.924.356 1.262.63.339.269.595.597.769.983.174.383.261.812.261 1.289 0 .636-.148 1.205-.444 1.705-.292.495-.71.915-1.256 1.26-.54.34-1.194.599-1.96.778-.767.175-1.62.262-2.56.262-.621 0-1.227-.04-1.819-.12a13.646 13.646 0 01-1.707-.326 13.82 13.82 0 01-1.551-.517 11.862 11.862 0 01-1.362-.665l1.192-1.818z" fill="url(#paint2_linear_42_509)"/></g><path d="M.544 11.383c0-1.053.235-1.993.705-2.821a5.091 5.091 0 011.948-1.947c.828-.47 1.753-.706 2.775-.706 1.196 0 2.244.307 3.143.92.9.614 1.529 1.462 1.886 2.546H8.534c-.246-.511-.593-.895-1.043-1.15-.44-.256-.95-.384-1.533-.384-.624 0-1.18.149-1.672.445-.48.286-.858.695-1.134 1.227-.266.531-.399 1.155-.399 1.87 0 .706.133 1.33.399 1.871a3.1 3.1 0 001.134 1.242 3.26 3.26 0 001.672.43c.582 0 1.094-.128 1.533-.384.45-.266.797-.654 1.043-1.165h2.469c-.358 1.093-.987 1.947-1.887 2.56-.889.603-1.937.905-3.143.905-1.022 0-1.947-.23-2.775-.69a5.235 5.235 0 01-1.948-1.947c-.47-.828-.705-1.769-.705-2.822zm17.811 5.367l-2.361-4.17h-1.012v4.17h-2.147V6.047h4.017c.828 0 1.534.149 2.116.445.583.286 1.017.68 1.304 1.18a3.14 3.14 0 01.444 1.657 3.22 3.22 0 01-.613 1.916c-.409.563-1.017.951-1.825 1.166l2.561 4.339h-2.484zm-3.373-5.78h1.794c.582 0 1.017-.139 1.303-.415.286-.286.43-.68.43-1.18 0-.491-.144-.87-.43-1.135-.286-.276-.72-.414-1.303-.414h-1.794v3.143zm9.823-3.19v2.683h3.603v1.702h-3.603v2.837h4.063v1.748h-6.21V6.032h6.21V7.78h-4.063zm12.576 6.93H33.12l-.706 2.04H30.16l3.85-10.718h2.498l3.85 10.718h-2.27l-.706-2.04zm-.582-1.717L35.25 8.516l-1.549 4.477H36.8zm12.279-6.946V7.78h-2.852v8.97h-2.147V7.78h-2.852V6.047h7.851zm3.713 1.733v2.683h3.603v1.702h-3.603v2.837h4.063v1.748h-6.21V6.032h6.21V7.78h-4.063zm9.755-1.733c1.125 0 2.111.22 2.96.66a4.639 4.639 0 011.978 1.886c.47.807.705 1.748.705 2.821 0 1.073-.235 2.014-.705 2.821-.46.798-1.12 1.416-1.978 1.856-.849.44-1.835.659-2.96.659h-3.74V6.047h3.74zm-.076 8.878c1.124 0 1.993-.306 2.606-.92.614-.613.92-1.477.92-2.591s-.306-1.983-.92-2.607c-.613-.633-1.482-.95-2.606-.95h-1.518v7.068h1.518zm17.052-3.664a2.405 2.405 0 011.487.904c.388.491.583 1.053.583 1.687 0 .572-.144 1.078-.43 1.518-.276.43-.68.767-1.211 1.012-.532.245-1.16.368-1.886.368H73.45V6.047h4.416c.725 0 1.349.118 1.87.353.532.235.93.562 1.196.981.276.42.414.895.414 1.426 0 .624-.168 1.145-.506 1.564-.327.42-.766.716-1.318.89zm-3.926-.798h1.963c.511 0 .905-.112 1.18-.337.277-.235.415-.567.415-.997 0-.429-.138-.761-.414-.996-.276-.235-.67-.353-1.181-.353h-1.963v2.683zm2.162 4.539c.522 0 .925-.123 1.212-.368.296-.245.444-.593.444-1.043 0-.46-.153-.817-.46-1.073-.306-.266-.72-.399-1.242-.399h-2.116v2.883h2.162zm14.055-8.955l-3.62 6.977v3.726h-2.146v-3.726l-3.634-6.977h2.423l2.3 4.892 2.285-4.892h2.391z" fill="#6C665B"/></g><defs><linearGradient id="paint0_linear_42_509" x1="163.842" y1="5.188" x2="163.842" y2="33.413" gradientUnits="userSpaceOnUse"><stop stop-color="#E4BC6D"/><stop offset="1" stop-color="#E4BC6D" stop-opacity=".22"/></linearGradient><linearGradient id="paint1_linear_42_509" x1="126.977" y1="5.211" x2="126.977" y2="33.624" gradientUnits="userSpaceOnUse"><stop stop-color="#E4BC6D"/><stop offset="1" stop-color="#E4BC6D" stop-opacity=".22"/></linearGradient><linearGradient id="paint2_linear_42_509" x1="177.064" y1="5.219" x2="177.064" y2="33.614" gradientUnits="userSpaceOnUse"><stop stop-color="#E4BC6D"/><stop offset="1" stop-color="#E4BC6D" stop-opacity=".22"/></linearGradient><clipPath id="clip0_42_509"><path fill="#fff" transform="translate(96.129 4.89)" d="M0 0h87.872v11.836H0z"/></clipPath></defs></svg>