<svg width="72" height="72" fill="none" xmlns="http://www.w3.org/2000/svg"><path d="M66 45c0 11.61-9.39 21-21 21l3.15-5.25" stroke="url(#paint0_linear_101_19)" stroke-width="1.5" stroke-linecap="round" stroke-linejoin="round"/><path d="M6 27C6 15.39 15.39 6 27 6l-3.15 5.25" stroke="url(#paint1_linear_101_19)" stroke-width="1.5" stroke-linecap="round" stroke-linejoin="round"/><path d="M66 12.6v.33c0 .84-.66 1.5-1.5 1.5h-27c-.84 0-1.5-.66-1.5-1.5v-.33C36 7.32 37.32 6 42.66 6h16.68C64.68 6 66 7.32 66 12.6z" fill="url(#paint2_linear_101_19)"/><path d="M37.5 17.43c-.84 0-1.5.66-1.5 1.5v5.97c0 5.28 1.32 6.6 6.66 6.6h16.68c5.34 0 6.66-1.32 6.66-6.6v-5.97c0-.84-.66-1.5-1.5-1.5h-27z" fill="url(#paint3_linear_101_19)"/><path d="M36 47.1v.33c0 .84-.66 1.5-1.5 1.5h-27c-.84 0-1.5-.66-1.5-1.5v-.33c0-5.28 1.32-6.6 6.66-6.6h16.68c5.34 0 6.66 1.32 6.66 6.6z" fill="url(#paint4_linear_101_19)"/><path d="M7.5 51.93c-.84 0-1.5.66-1.5 1.5v5.97c0 5.28 1.32 6.6 6.66 6.6h16.68c5.34 0 6.66-1.32 6.66-6.6v-5.97c0-.84-.66-1.5-1.5-1.5h-27z" fill="url(#paint5_linear_101_19)"/><defs><linearGradient id="paint0_linear_101_19" x1="55.5" y1="45" x2="55.5" y2="97.5" gradientUnits="userSpaceOnUse"><stop stop-color="#E4BC6D"/><stop offset="1" stop-color="#E4BC6D" stop-opacity=".22"/></linearGradient><linearGradient id="paint1_linear_101_19" x1="16.5" y1="6" x2="16.5" y2="58.5" gradientUnits="userSpaceOnUse"><stop stop-color="#E4BC6D"/><stop offset="1" stop-color="#E4BC6D" stop-opacity=".22"/></linearGradient><linearGradient id="paint2_linear_101_19" x1="51" y1="6" x2="51" y2="27.075" gradientUnits="userSpaceOnUse"><stop stop-color="#E4BC6D"/><stop offset="1" stop-color="#E4BC6D" stop-opacity=".22"/></linearGradient><linearGradient id="paint3_linear_101_19" x1="51" y1="17.43" x2="51" y2="52.605" gradientUnits="userSpaceOnUse"><stop stop-color="#E4BC6D"/><stop offset="1" stop-color="#E4BC6D" stop-opacity=".22"/></linearGradient><linearGradient id="paint4_linear_101_19" x1="21" y1="40.5" x2="21" y2="61.575" gradientUnits="userSpaceOnUse"><stop stop-color="#E4BC6D"/><stop offset="1" stop-color="#E4BC6D" stop-opacity=".22"/></linearGradient><linearGradient id="paint5_linear_101_19" x1="21" y1="51.93" x2="21" y2="87.105" gradientUnits="userSpaceOnUse"><stop stop-color="#E4BC6D"/><stop offset="1" stop-color="#E4BC6D" stop-opacity=".22"/></linearGradient></defs></svg>