<svg width="72" height="72" fill="none" xmlns="http://www.w3.org/2000/svg"><path d="M47.34 6H24.66C13.32 6 10.5 9.03 10.5 21.12V54.9c0 7.98 4.38 9.87 9.69 4.17l.03-.03c2.46-2.61 6.21-2.4 8.34.45l3.03 4.05c2.43 3.21 6.36 3.21 8.79 0l3.03-4.05c2.16-2.88 5.91-3.09 8.37-.45 5.34 5.7 9.69 3.81 9.69-4.17V21.12C61.5 9.03 58.68 6 47.34 6zM27 21c1.65 0 3 1.35 3 3s-1.32 3-3 3-3-1.35-3-3 1.32-3 3-3zm18 21c-1.68 0-3-1.35-3-3s1.35-3 3-3 3 1.35 3 3-1.32 3-3 3zm2.7-19.23L27.51 42.96c-.45.45-1.02.66-1.59.66-.57 0-1.14-.21-1.59-.66-.87-.87-.87-2.31 0-3.18l20.19-20.19c.87-.87 2.31-.87 3.18 0 .87.87.87 2.31 0 3.18z" fill="url(#paint0_linear_101_29)"/><defs><linearGradient id="paint0_linear_101_29" x1="35.985" y1="6" x2="35.985" y2="155.869" gradientUnits="userSpaceOnUse"><stop stop-color="#E4BC6D"/><stop offset="1" stop-color="#E4BC6D" stop-opacity=".22"/></linearGradient></defs></svg>