<svg width="72" height="72" fill="none" xmlns="http://www.w3.org/2000/svg"><path d="M35.82 6.63l-7.23 16.83h-7.23c-1.2 0-2.37.09-3.51.33l3-7.2.12-.27.18-.48c.09-.21.15-.39.24-.54 3.48-8.07 7.38-10.59 14.43-8.67z" fill="url(#paint0_linear_101_2)"/><path d="M56.19 24.27l-.06-.03c-1.8-.51-3.63-.78-5.49-.78H31.86l6.75-15.69.09-.21c.42.15.87.36 1.32.51l6.63 2.79c3.69 1.53 6.27 3.12 7.86 5.04.27.36.51.69.75 1.08.27.42.48.84.6 1.29.12.27.21.51.27.78.45 1.53.48 3.27.06 5.22z" fill="url(#paint1_linear_101_2)"/><path d="M37.56 52.98h.75c.9 0 1.65-.81 1.65-1.8 0-1.26-.36-1.44-1.14-1.74l-1.26-.45v3.99z" fill="url(#paint2_linear_101_2)"/><path d="M54.87 28.56c-1.35-.39-2.76-.6-4.23-.6H21.36c-2.04 0-3.96.39-5.76 1.17-5.22 2.25-8.88 7.44-8.88 13.47v5.85c0 .72.06 1.41.15 2.13.66 9.54 5.76 14.64 15.3 15.27.69.09 1.38.15 2.13.15h23.4c11.1 0 16.95-5.28 17.52-15.78.03-.57.06-1.17.06-1.77V42.6c0-6.63-4.41-12.21-10.41-14.04zM39.84 46.5c1.38.48 3.24 1.5 3.24 4.68 0 2.73-2.13 4.92-4.77 4.92h-.75v.66c0 .87-.69 1.56-1.56 1.56-.87 0-1.56-.69-1.56-1.56v-.66h-.27c-2.88 0-5.25-2.43-5.25-5.43 0-.87.69-1.56 1.56-1.56.87 0 1.56.69 1.56 1.56 0 1.26.96 2.31 2.13 2.31h.27v-5.07l-2.28-.81c-1.38-.48-3.24-1.5-3.24-4.68 0-2.73 2.13-4.92 4.77-4.92h.75v-.66c0-.87.69-1.56 1.56-1.56.87 0 1.56.69 1.56 1.56v.66h.27c2.88 0 5.25 2.43 5.25 5.43 0 .87-.69 1.56-1.56 1.56-.87 0-1.56-.69-1.56-1.56 0-1.26-.96-2.31-2.13-2.31h-.27v5.07l2.28.81z" fill="url(#paint3_linear_101_2)"/><path d="M32.04 42.42c0 1.26.36 1.44 1.14 1.74l1.26.45v-3.99h-.75c-.93 0-1.65.81-1.65 1.8z" fill="url(#paint4_linear_101_2)"/><defs><linearGradient id="paint0_linear_101_2" x1="26.835" y1="6.018" x2="26.835" y2="50.448" gradientUnits="userSpaceOnUse"><stop stop-color="#E4BC6D"/><stop offset="1" stop-color="#E4BC6D" stop-opacity=".22"/></linearGradient><linearGradient id="paint1_linear_101_2" x1="44.174" y1="7.56" x2="44.174" y2="49.335" gradientUnits="userSpaceOnUse"><stop stop-color="#E4BC6D"/><stop offset="1" stop-color="#E4BC6D" stop-opacity=".22"/></linearGradient><linearGradient id="paint2_linear_101_2" x1="38.76" y1="48.99" x2="38.76" y2="58.965" gradientUnits="userSpaceOnUse"><stop stop-color="#E4BC6D"/><stop offset="1" stop-color="#E4BC6D" stop-opacity=".22"/></linearGradient><linearGradient id="paint3_linear_101_2" x1="36" y1="27.96" x2="36" y2="123.06" gradientUnits="userSpaceOnUse"><stop stop-color="#E4BC6D"/><stop offset="1" stop-color="#E4BC6D" stop-opacity=".22"/></linearGradient><linearGradient id="paint4_linear_101_2" x1="33.24" y1="40.62" x2="33.24" y2="50.595" gradientUnits="userSpaceOnUse"><stop stop-color="#E4BC6D"/><stop offset="1" stop-color="#E4BC6D" stop-opacity=".22"/></linearGradient></defs></svg>