<svg width="707" height="374" fill="none" xmlns="http://www.w3.org/2000/svg"><g opacity=".36"><circle cx="187" cy="187" r="185" stroke="#E7A82F" stroke-opacity=".2" stroke-width="2"/><circle cx="519.629" cy="187" r="185" stroke="#E7A82F" stroke-opacity=".2" stroke-width="2"/><path d="M291.429 340.565a.998.998 0 00-.791-1.172l-8.834-1.718a1 1 0 10-.382 1.963l7.853 1.527-1.526 7.853a.999.999 0 101.963.382l1.717-8.835zm-1.541-1.02a183.999 183.999 0 01-126.112 29.986l-.252 1.984a185.998 185.998 0 00127.483-30.312l-1.119-1.658zm-126.112 29.986a183.993 183.993 0 01-114.587-60.607l-1.498 1.325a186 186 0 00115.833 61.266l.252-1.984zM49.189 308.924A183.998 183.998 0 013 187.805l-2 .009a185.998 185.998 0 0046.69 122.435l1.498-1.325zM3 187.805A184 184 0 0148.13 66.287l-1.509-1.312A185.999 185.999 0 001 187.814l2-.009zM48.13 66.287A183.999 183.999 0 01162.185 4.683l-.269-1.982A186 186 0 0046.621 64.975l1.51 1.313zM162.185 4.683a184 184 0 01126.369 28.884l1.104-1.667A185.998 185.998 0 00161.915 2.7l.269 1.982zm126.369 28.884a184 184 0 0175.965 105.038l1.929-.526a185.998 185.998 0 00-76.79-106.18l-1.104 1.668zm75.965 105.038a184.003 184.003 0 01-12.143 129.058l1.797.876a185.992 185.992 0 0012.275-130.46l-1.929.526z" fill="#E7A82F"/><path d="M415.2 33.435a1 1 0 00.791 1.172l8.834 1.718a1.001 1.001 0 00.382-1.964l-7.853-1.526 1.526-7.853a.999.999 0 10-1.963-.382l-1.717 8.835zm1.541 1.02A183.998 183.998 0 01542.852 4.469l.253-1.984a186.002 186.002 0 00-127.483 30.312l1.119 1.658zM542.852 4.469A184.004 184.004 0 01657.44 65.076l1.498-1.325A186.002 186.002 0 00543.105 2.485l-.253 1.984zM657.44 65.076a184.001 184.001 0 0146.19 121.119l2-.009A186.005 186.005 0 00658.938 63.75l-1.498 1.326zm46.19 121.119a184 184 0 01-45.132 121.518l1.51 1.312a186 186 0 0045.622-122.839l-2 .009zm-45.132 121.518a183.998 183.998 0 01-114.053 61.604l.269 1.982a186.007 186.007 0 00115.294-62.274l-1.51-1.312zm-114.053 61.604a183.999 183.999 0 01-126.369-28.884l-1.104 1.667a185.995 185.995 0 00127.742 29.199l-.269-1.982zm-126.369-28.884a184.004 184.004 0 01-75.965-105.038l-1.929.526a185.996 185.996 0 0076.79 106.179l1.104-1.667zm-75.965-105.038a184.003 184.003 0 0112.143-129.058l-1.798-.876a185.997 185.997 0 00-12.274 130.46l1.929-.526z" fill="#E7A82F"/></g></svg>