<svg width="180" height="37" fill="none" xmlns="http://www.w3.org/2000/svg"><path d="M7.321 26L.171 1.424H5.26l3.196 12.202 1.066 5.362h.069c.412-2.04.79-3.78 1.134-5.224l2.68-12.34h4.813l2.68 12.305 1.135 5.26h.069c.481-2.178.882-3.976 1.203-5.397l3.093-12.168h4.915L24.3 26h-4.64l-2.99-13.164-.86-4.365h-.068c-.252 1.718-.516 3.173-.79 4.365L11.926 26H7.32zM37.328 1.424v9.246h.103c.664-.962 1.386-1.66 2.165-2.096.802-.459 1.788-.688 2.956-.688 1.81 0 3.277.619 4.4 1.856 1.123 1.215 1.684 2.796 1.684 4.744V26h-4.675V15.173c0-.962-.274-1.742-.824-2.337-.528-.596-1.272-.894-2.235-.894-1.03 0-1.89.378-2.577 1.134-.665.756-.997 1.73-.997 2.922V26h-4.675V1.424h4.675zM62.275 26c-.229-.298-.412-.95-.55-1.96h-.068a5.225 5.225 0 01-1.925 1.754c-.78.412-1.867.619-3.265.619-1.856 0-3.346-.47-4.468-1.41-1.123-.94-1.685-2.268-1.685-3.987 0-1.787.619-3.093 1.856-3.918 1.238-.848 2.98-1.432 5.225-1.753 1.65-.23 2.772-.458 3.368-.688.596-.252.894-.687.894-1.306 0-.641-.252-1.145-.756-1.512-.505-.39-1.238-.584-2.2-.584-2.131 0-3.265.825-3.403 2.474H51.14c.069-1.672.745-3.059 2.028-4.159 1.283-1.1 3.14-1.65 5.568-1.65 4.95 0 7.424 2.166 7.424 6.497v8.97c0 1.33.207 2.143.62 2.441V26h-4.503zm-4.674-2.853c1.283 0 2.291-.332 3.025-.997.756-.664 1.134-1.455 1.134-2.371v-2.647c-.504.298-1.593.642-3.265 1.031-1.33.298-2.269.642-2.819 1.032-.55.366-.825.939-.825 1.718 0 1.49.917 2.234 2.75 2.234zm9.82-11.686V8.367h2.44V2.869h4.572v5.5h3.024v3.093h-3.024v9.349c0 1.169.584 1.753 1.752 1.753l1.375-.034v3.437c-.71.046-1.684.068-2.921.068-1.352 0-2.486-.32-3.403-.962-.917-.665-1.375-1.753-1.375-3.265V11.46h-2.44zM81.3 26.076V1.5h7.013l3.471 12.34c.252.916.504 1.936.756 3.058.275 1.1.481 1.971.619 2.613l.172.962h.069c.435-2.36.939-4.571 1.512-6.634L98.383 1.5h7.115v24.576h-4.64V11.983l.206-5.087h-.068c-.367 1.925-.722 3.483-1.066 4.675l-4.228 14.505h-4.777L86.8 11.57l-1.065-4.675h-.07c.138 2.063.207 3.758.207 5.087v14.093h-4.571zm51.237-17.633v2.406h.103c1.215-1.925 2.956-2.887 5.225-2.887 1.81 0 3.276.619 4.399 1.856 1.123 1.214 1.684 2.795 1.684 4.743v11.515h-4.674V15.248c0-.962-.275-1.74-.825-2.337-.527-.595-1.272-.893-2.234-.893-1.031 0-1.891.378-2.578 1.134-.664.756-.997 1.73-.997 2.921v10.003h-4.674V8.443h4.571zm22.233 18.148c-2.842 0-5.076-.87-6.703-2.612-1.627-1.764-2.44-4.01-2.44-6.737 0-2.635.813-4.835 2.44-6.6 1.627-1.787 3.712-2.68 6.256-2.68 2.772 0 4.915.962 6.427 2.887 1.512 1.925 2.269 4.503 2.269 7.734h-12.786c.183 1.397.653 2.486 1.409 3.265.756.756 1.787 1.134 3.093 1.134 1.719 0 2.853-.722 3.403-2.165h4.606c-.344 1.65-1.215 3.024-2.613 4.124-1.397 1.1-3.185 1.65-5.361 1.65zm-.379-15.02c-2.268 0-3.631 1.26-4.09 3.78h7.837c-.069-1.122-.447-2.027-1.134-2.715-.688-.71-1.558-1.065-2.613-1.065zm10.322 20.279v-3.678h1.65c1.741 0 2.612-.802 2.612-2.406 0-.779-.447-2.371-1.34-4.777l-4.744-12.546h4.915l2.613 7.94 1.134 3.85h.069c.32-1.49.664-2.773 1.031-3.85l2.475-7.94h4.708l-6.152 18.08c-.687 2.016-1.467 3.402-2.337 4.158-.848.78-2.143 1.169-3.884 1.169h-2.75z" fill="#FDFDFD"/><path fill-rule="evenodd" clip-rule="evenodd" d="M107.997 15.792a8.825 8.825 0 012.432-4.814c1.719-1.787 3.93-2.681 6.634-2.681s4.915.894 6.634 2.68c1.718 1.765 2.578 3.976 2.578 6.634 0 2.04-.507 3.824-1.519 5.351.666 4.566 4.984 8.716 7.158 10.278-2.765-.269-7.928-2.453-12.209-4.504v-.055a3.556 3.556 0 00-6.207-2.37 8.453 8.453 0 01-3.069-2.031c-1.718-1.788-2.577-4.01-2.577-6.669 0-.08 0-.161.002-.242-.002-.06-.002-.12-.002-.18 0-.477.05-.944.145-1.397zm6.496 8.436c0-1.318.128-2.26.384-2.828.275-.568.778-1.153 1.51-1.758.22-.2.613-.494 1.181-.878.567-.385.97-.741 1.208-1.071.256-.33.384-.75.384-1.263 0-.622-.219-1.117-.659-1.483-.439-.384-.997-.576-1.675-.576-.842 0-1.519.256-2.031.768-.495.495-.742 1.181-.742 2.06h-4.42c.036-1.977.714-3.56 2.032-4.75s3.102-1.785 5.354-1.785c2.05 0 3.697.522 4.942 1.565 1.263 1.025 1.894 2.37 1.894 4.036 0 .806-.146 1.52-.439 2.142-.293.622-.595 1.08-.906 1.373a8.592 8.592 0 01-1.236.933c-.164.11-.375.247-.631.412a7.456 7.456 0 00-.577.357l-.411.275a4.87 4.87 0 00-.412.302 4.515 4.515 0 00-.275.302c-.348.439-.522 1.061-.522 1.867h-3.953z" fill="url(#paint0_linear_42_8)"/><defs><linearGradient id="paint0_linear_42_8" x1="119.883" y1="8.297" x2="119.883" y2="70.656" gradientUnits="userSpaceOnUse"><stop stop-color="#E4BC6D"/><stop offset="1" stop-color="#E4BC6D" stop-opacity=".22"/></linearGradient></defs></svg>